<svg width="64" height="64" viewBox="0 0 64 64" fill="none" xmlns="http://www.w3.org/2000/svg">
<path fill-rule="evenodd" clip-rule="evenodd" d="M32 64C49.6731 64 64 49.6731 64 32C64 14.3269 49.6731 0 32 0C14.3269 0 0 14.3269 0 32C0 49.6731 14.3269 64 32 64ZM32 6C41.7191 6 50.1926 11.3328 54.6542 19.2319L47.1798 23.5473C44.2108 18.2267 38.5256 14.6286 32 14.6286C22.406 14.6286 14.6286 22.406 14.6286 32C14.6286 41.594 22.406 49.3714 32 49.3714C38.4737 49.3714 44.1203 45.8303 47.1085 40.5793L54.5824 44.8944C50.1021 52.724 41.6672 58 32 58C17.6406 58 6 46.3594 6 32C6 17.6406 17.6406 6 32 6ZM42 32C42 37.5229 37.5229 42 32 42C26.4772 42 22 37.5229 22 32C22 26.4772 26.4772 22 32 22C37.5229 22 42 26.4772 42 32Z" fill="url(#paint0_linear_45_21)"/>
<defs>
<linearGradient id="paint0_linear_45_21" x1="42" y1="32" x2="24" y2="32" gradientUnits="userSpaceOnUse">
<stop stop-color="#FC7F7F"/>
<stop offset="1" stop-color="#8EEF97"/>
</linearGradient>
</defs>
</svg>
