{
	"asset":{
		"generator":"Khronos glTF Blender I/O v4.4.55",
		"version":"2.0"
	},
	"scene":0,
	"scenes":[
		{
			"name":"Scene",
			"nodes":[
				0
			]
		}
	],
	"nodes":[
		{
			"mesh":0,
			"name":"Fridge"
		}
	],
	"materials":[
		{
			"doubleSided":true,
			"name":"GradientMap",
			"pbrMetallicRoughness":{
				"baseColorTexture":{
					"index":0
				},
				"metallicFactor":0
			}
		}
	],
	"meshes":[
		{
			"name":"Plane.003",
			"primitives":[
				{
					"attributes":{
						"POSITION":0,
						"NORMAL":1,
						"TEXCOORD_0":2
					},
					"indices":3,
					"material":0
				}
			]
		}
	],
	"textures":[
		{
			"sampler":0,
			"source":0
		}
	],
	"images":[
		{
			"mimeType":"image/png",
			"name":"GradientMap",
			"uri":"GradientMap.png"
		}
	],
	"accessors":[
		{
			"bufferView":0,
			"componentType":5126,
			"count":1806,
			"max":[
				0.42857104539871216,
				2.0180599689483643,
				0.4999999701976776
			],
			"min":[
				-0.38718661665916443,
				0,
				-0.529829740524292
			],
			"type":"VEC3"
		},
		{
			"bufferView":1,
			"componentType":5126,
			"count":1806,
			"type":"VEC3"
		},
		{
			"bufferView":2,
			"componentType":5126,
			"count":1806,
			"type":"VEC2"
		},
		{
			"bufferView":3,
			"componentType":5123,
			"count":2736,
			"type":"SCALAR"
		}
	],
	"bufferViews":[
		{
			"buffer":0,
			"byteLength":21672,
			"byteOffset":0,
			"target":34962
		},
		{
			"buffer":0,
			"byteLength":21672,
			"byteOffset":21672,
			"target":34962
		},
		{
			"buffer":0,
			"byteLength":14448,
			"byteOffset":43344,
			"target":34962
		},
		{
			"buffer":0,
			"byteLength":5472,
			"byteOffset":57792,
			"target":34963
		}
	],
	"samplers":[
		{
			"magFilter":9729,
			"minFilter":9987
		}
	],
	"buffers":[
		{
			"byteLength":63264,
			"uri":"Fridge.bin"
		}
	]
}
