{
	"asset":{
		"generator":"Khronos glTF Blender I/O v4.4.55",
		"version":"2.0"
	},
	"scene":0,
	"scenes":[
		{
			"name":"Scene",
			"nodes":[
				0
			]
		}
	],
	"nodes":[
		{
			"mesh":0,
			"name":"Oven"
		}
	],
	"materials":[
		{
			"doubleSided":true,
			"name":"GradientMap",
			"pbrMetallicRoughness":{
				"baseColorTexture":{
					"index":0
				},
				"metallicFactor":0
			}
		}
	],
	"meshes":[
		{
			"name":"Plane.002",
			"primitives":[
				{
					"attributes":{
						"POSITION":0,
						"NORMAL":1,
						"TEXCOORD_0":2
					},
					"indices":3,
					"material":0
				}
			]
		}
	],
	"textures":[
		{
			"sampler":0,
			"source":0
		}
	],
	"images":[
		{
			"mimeType":"image/png",
			"name":"GradientMap",
			"uri":"GradientMap.png"
		}
	],
	"accessors":[
		{
			"bufferView":0,
			"componentType":5126,
			"count":2915,
			"max":[
				0.5,
				1.1215379238128662,
				0.41985973715782166
			],
			"min":[
				-0.5,
				0,
				-0.5583742260932922
			],
			"type":"VEC3"
		},
		{
			"bufferView":1,
			"componentType":5126,
			"count":2915,
			"type":"VEC3"
		},
		{
			"bufferView":2,
			"componentType":5126,
			"count":2915,
			"type":"VEC2"
		},
		{
			"bufferView":3,
			"componentType":5123,
			"count":8052,
			"type":"SCALAR"
		}
	],
	"bufferViews":[
		{
			"buffer":0,
			"byteLength":34980,
			"byteOffset":0,
			"target":34962
		},
		{
			"buffer":0,
			"byteLength":34980,
			"byteOffset":34980,
			"target":34962
		},
		{
			"buffer":0,
			"byteLength":23320,
			"byteOffset":69960,
			"target":34962
		},
		{
			"buffer":0,
			"byteLength":16104,
			"byteOffset":93280,
			"target":34963
		}
	],
	"samplers":[
		{
			"magFilter":9729,
			"minFilter":9987
		}
	],
	"buffers":[
		{
			"byteLength":109384,
			"uri":"Oven.bin"
		}
	]
}
