<svg width="16" height="16" viewBox="0 0 16 16" fill="none" xmlns="http://www.w3.org/2000/svg">
<path fill-rule="evenodd" clip-rule="evenodd" d="M8 16C12.4183 16 16 12.4183 16 8C16 3.58172 12.4183 0 8 0C3.58172 0 0 3.58172 0 8C0 12.4183 3.58172 16 8 16ZM14.1709 4.51506C12.9542 2.36523 10.6465 0.914286 8 0.914286C4.08667 0.914286 0.914286 4.08667 0.914286 8C0.914286 11.9133 4.08667 15.0857 8 15.0857C10.6336 15.0857 12.9316 13.649 14.1529 11.5165L11.7771 10.1448C11.0301 11.4576 9.61843 12.3429 8 12.3429C5.60151 12.3429 3.65714 10.3985 3.65714 8C3.65714 5.60151 5.60151 3.65714 8 3.65714C9.6314 3.65714 11.0527 4.55668 11.795 5.88682L14.1709 4.51506ZM8 11.4286C9.89355 11.4286 11.4286 9.89355 11.4286 8C11.4286 6.10645 9.89355 4.57143 8 4.57143C6.10645 4.57143 4.57143 6.10645 4.57143 8C4.57143 9.89355 6.10645 11.4286 8 11.4286Z" fill="url(#paint0_linear_34_29)"/>
<defs>
<linearGradient id="paint0_linear_34_29" x1="-5.22088e-08" y1="7.77143" x2="16" y2="7.77143" gradientUnits="userSpaceOnUse">
<stop offset="0.4" stop-color="#8EEF97"/>
<stop offset="0.6" stop-color="#FC7F7F"/>
</linearGradient>
</defs>
</svg>
