<svg width="16" height="16" viewBox="0 0 16 16" fill="none" xmlns="http://www.w3.org/2000/svg">
<path fill-rule="evenodd" clip-rule="evenodd" d="M8 16C12.4183 16 16 12.4183 16 8C16 3.58172 12.4183 0 8 0C3.58172 0 0 3.58172 0 8C0 12.4183 3.58172 16 8 16ZM8 1.5C10.4298 1.5 12.5482 2.83319 13.6636 4.80798L11.795 5.88682C11.0527 4.55668 9.6314 3.65714 8 3.65714C5.60151 3.65714 3.65714 5.60151 3.65714 8C3.65714 10.3985 5.60151 12.3429 8 12.3429C9.61843 12.3429 11.0301 11.4576 11.7771 10.1448L13.6456 11.2236C12.5255 13.181 10.4168 14.5 8 14.5C4.41015 14.5 1.5 11.5899 1.5 8C1.5 4.41015 4.41015 1.5 8 1.5ZM10.5 8C10.5 9.38071 9.38071 10.5 8 10.5C6.61929 10.5 5.5 9.38071 5.5 8C5.5 6.61929 6.61929 5.5 8 5.5C9.38071 5.5 10.5 6.61929 10.5 8Z" fill="url(#paint0_linear_43_20)"/>
<defs>
<linearGradient id="paint0_linear_43_20" x1="2" y1="8" x2="14" y2="8" gradientUnits="userSpaceOnUse">
<stop stop-color="#8EEF97"/>
<stop offset="0.245553" stop-color="#FC7F7F"/>
<stop offset="0.75" stop-color="#FC7F7F"/>
<stop offset="1" stop-color="#8EEF97"/>
</linearGradient>
</defs>
</svg>
