{
	"asset":{
		"generator":"Khronos glTF Blender I/O v4.4.55",
		"version":"2.0"
	},
	"scene":0,
	"scenes":[
		{
			"name":"Scene",
			"nodes":[
				0
			]
		}
	],
	"nodes":[
		{
			"mesh":0,
			"name":"Chair"
		}
	],
	"materials":[
		{
			"doubleSided":true,
			"name":"GradientMap",
			"pbrMetallicRoughness":{
				"baseColorTexture":{
					"index":0
				},
				"metallicFactor":0
			}
		}
	],
	"meshes":[
		{
			"name":"Plane.009",
			"primitives":[
				{
					"attributes":{
						"POSITION":0,
						"NORMAL":1,
						"TEXCOORD_0":2
					},
					"indices":3,
					"material":0
				}
			]
		}
	],
	"textures":[
		{
			"sampler":0,
			"source":0
		}
	],
	"images":[
		{
			"mimeType":"image/png",
			"name":"GradientMap",
			"uri":"GradientMap.png"
		}
	],
	"accessors":[
		{
			"bufferView":0,
			"componentType":5126,
			"count":1780,
			"max":[
				0.2689168453216553,
				1.1148334741592407,
				0.2689168453216553
			],
			"min":[
				-0.2689168453216553,
				-0.006223923526704311,
				-0.2689168453216553
			],
			"type":"VEC3"
		},
		{
			"bufferView":1,
			"componentType":5126,
			"count":1780,
			"type":"VEC3"
		},
		{
			"bufferView":2,
			"componentType":5126,
			"count":1780,
			"type":"VEC2"
		},
		{
			"bufferView":3,
			"componentType":5123,
			"count":2808,
			"type":"SCALAR"
		}
	],
	"bufferViews":[
		{
			"buffer":0,
			"byteLength":21360,
			"byteOffset":0,
			"target":34962
		},
		{
			"buffer":0,
			"byteLength":21360,
			"byteOffset":21360,
			"target":34962
		},
		{
			"buffer":0,
			"byteLength":14240,
			"byteOffset":42720,
			"target":34962
		},
		{
			"buffer":0,
			"byteLength":5616,
			"byteOffset":56960,
			"target":34963
		}
	],
	"samplers":[
		{
			"magFilter":9729,
			"minFilter":9987
		}
	],
	"buffers":[
		{
			"byteLength":62576,
			"uri":"Chair.bin"
		}
	]
}
