{
	"asset":{
		"generator":"Khronos glTF Blender I/O v4.4.55",
		"version":"2.0"
	},
	"scene":0,
	"scenes":[
		{
			"name":"Scene",
			"nodes":[
				0
			]
		}
	],
	"nodes":[
		{
			"mesh":0,
			"name":"CounterSink"
		}
	],
	"materials":[
		{
			"doubleSided":true,
			"name":"GradientMap",
			"pbrMetallicRoughness":{
				"baseColorTexture":{
					"index":0
				},
				"metallicFactor":0
			}
		}
	],
	"meshes":[
		{
			"name":"Plane.001",
			"primitives":[
				{
					"attributes":{
						"POSITION":0,
						"NORMAL":1,
						"TEXCOORD_0":2
					},
					"indices":3,
					"material":0
				}
			]
		}
	],
	"textures":[
		{
			"sampler":0,
			"source":0
		}
	],
	"images":[
		{
			"mimeType":"image/png",
			"name":"GradientMap",
			"uri":"GradientMap.png"
		}
	],
	"accessors":[
		{
			"bufferView":0,
			"componentType":5126,
			"count":1505,
			"max":[
				1.0124822854995728,
				1.0815119743347168,
				0.4124767780303955
			],
			"min":[
				-1.0124822854995728,
				0,
				-0.4595045745372772
			],
			"type":"VEC3"
		},
		{
			"bufferView":1,
			"componentType":5126,
			"count":1505,
			"type":"VEC3"
		},
		{
			"bufferView":2,
			"componentType":5126,
			"count":1505,
			"type":"VEC2"
		},
		{
			"bufferView":3,
			"componentType":5123,
			"count":6108,
			"type":"SCALAR"
		}
	],
	"bufferViews":[
		{
			"buffer":0,
			"byteLength":18060,
			"byteOffset":0,
			"target":34962
		},
		{
			"buffer":0,
			"byteLength":18060,
			"byteOffset":18060,
			"target":34962
		},
		{
			"buffer":0,
			"byteLength":12040,
			"byteOffset":36120,
			"target":34962
		},
		{
			"buffer":0,
			"byteLength":12216,
			"byteOffset":48160,
			"target":34963
		}
	],
	"samplers":[
		{
			"magFilter":9729,
			"minFilter":9987
		}
	],
	"buffers":[
		{
			"byteLength":60376,
			"uri":"CounterSink.bin"
		}
	]
}
