{
	"asset":{
		"generator":"Khronos glTF Blender I/O v4.4.55",
		"version":"2.0"
	},
	"scene":0,
	"scenes":[
		{
			"name":"Scene",
			"nodes":[
				0
			]
		}
	],
	"nodes":[
		{
			"mesh":0,
			"name":"Door"
		}
	],
	"materials":[
		{
			"doubleSided":true,
			"name":"GradientMap",
			"pbrMetallicRoughness":{
				"baseColorTexture":{
					"index":0
				},
				"metallicFactor":0
			}
		}
	],
	"meshes":[
		{
			"name":"Plane.011",
			"primitives":[
				{
					"attributes":{
						"POSITION":0,
						"NORMAL":1,
						"TEXCOORD_0":2
					},
					"indices":3,
					"material":0
				}
			]
		}
	],
	"textures":[
		{
			"sampler":0,
			"source":0
		}
	],
	"images":[
		{
			"mimeType":"image/png",
			"name":"GradientMap",
			"uri":"GradientMap.png"
		}
	],
	"accessors":[
		{
			"bufferView":0,
			"componentType":5126,
			"count":1274,
			"max":[
				0.9815528988838196,
				2.0066301822662354,
				0.0884266048669815
			],
			"min":[
				0.01844710111618042,
				0,
				-0.0884266048669815
			],
			"type":"VEC3"
		},
		{
			"bufferView":1,
			"componentType":5126,
			"count":1274,
			"type":"VEC3"
		},
		{
			"bufferView":2,
			"componentType":5126,
			"count":1274,
			"type":"VEC2"
		},
		{
			"bufferView":3,
			"componentType":5123,
			"count":2100,
			"type":"SCALAR"
		}
	],
	"bufferViews":[
		{
			"buffer":0,
			"byteLength":15288,
			"byteOffset":0,
			"target":34962
		},
		{
			"buffer":0,
			"byteLength":15288,
			"byteOffset":15288,
			"target":34962
		},
		{
			"buffer":0,
			"byteLength":10192,
			"byteOffset":30576,
			"target":34962
		},
		{
			"buffer":0,
			"byteLength":4200,
			"byteOffset":40768,
			"target":34963
		}
	],
	"samplers":[
		{
			"magFilter":9729,
			"minFilter":9987
		}
	],
	"buffers":[
		{
			"byteLength":44968,
			"uri":"Door.bin"
		}
	]
}
