{
	"asset":{
		"generator":"Khronos glTF Blender I/O v4.4.55",
		"version":"2.0"
	},
	"scene":0,
	"scenes":[
		{
			"name":"Scene",
			"nodes":[
				0
			]
		}
	],
	"nodes":[
		{
			"mesh":0,
			"name":"Outside"
		}
	],
	"materials":[
		{
			"doubleSided":true,
			"name":"GradientMap",
			"pbrMetallicRoughness":{
				"baseColorTexture":{
					"index":0
				},
				"metallicFactor":0
			}
		}
	],
	"meshes":[
		{
			"name":"Plane.012",
			"primitives":[
				{
					"attributes":{
						"POSITION":0,
						"NORMAL":1,
						"TEXCOORD_0":2
					},
					"indices":3,
					"material":0
				}
			]
		}
	],
	"textures":[
		{
			"sampler":0,
			"source":0
		}
	],
	"images":[
		{
			"mimeType":"image/png",
			"name":"GradientMap",
			"uri":"GradientMap.png"
		}
	],
	"accessors":[
		{
			"bufferView":0,
			"componentType":5126,
			"count":632027,
			"max":[
				17.394481658935547,
				4.261659622192383,
				17.322011947631836
			],
			"min":[
				-17.189847946166992,
				-0.16009478271007538,
				-17.6417293548584
			],
			"type":"VEC3"
		},
		{
			"bufferView":1,
			"componentType":5126,
			"count":632027,
			"type":"VEC3"
		},
		{
			"bufferView":2,
			"componentType":5126,
			"count":632027,
			"type":"VEC2"
		},
		{
			"bufferView":3,
			"componentType":5125,
			"count":877440,
			"type":"SCALAR"
		}
	],
	"bufferViews":[
		{
			"buffer":0,
			"byteLength":7584324,
			"byteOffset":0,
			"target":34962
		},
		{
			"buffer":0,
			"byteLength":7584324,
			"byteOffset":7584324,
			"target":34962
		},
		{
			"buffer":0,
			"byteLength":5056216,
			"byteOffset":15168648,
			"target":34962
		},
		{
			"buffer":0,
			"byteLength":3509760,
			"byteOffset":20224864,
			"target":34963
		}
	],
	"samplers":[
		{
			"magFilter":9729,
			"minFilter":9987
		}
	],
	"buffers":[
		{
			"byteLength":23734624,
			"uri":"Outside.bin"
		}
	]
}
